# xmcd CD database file
#
# Track frame offsets:
#	150
#	19494
#	33826
#	52208
#	69824
#	87670
#	104341
#	117513
#	135172
#	146427
#
# Disc length: 2097 seconds
#
# Revision: 0
# Processed by: cddbd v1.5.1PL0 Copyright (c) Steve Scherf et al.
# Submitted via: CDex 1.51
#
DISCID=89082f0a
DTITLE=Various Artist - New Country Hits Vol 2
DYEAR=1900
DGENRE=Country
TTITLE0=I Swear
TTITLE1=Big Deal
TTITLE2=Any Man of Mine
TTITLE3=Man, I Feel Like a Woman
TTITLE4=I Hope You Dance
TTITLE5=That Don't Impress Me Much
TTITLE6=Don't Rock the Jukebox
TTITLE7=Love Is A Sweet Thing
TTITLE8=Some Days You Gotta Dance
TTITLE9=Tall Tall Trees
EXTD=
EXTT0=
EXTT1=
EXTT2=
EXTT3=
EXTT4=
EXTT5=
EXTT6=
EXTT7=
EXTT8=
EXTT9=
PLAYORDER=
